# xmcd
#
# Track frame offsets: 
#        150
#        2720
#        17876
#        33918
#        48145
#        60357
#        79027
#        95851
#        106344
#        118836
#        132854
#        144749
#        159225
#        169953
#        182129
#        193244
#        205765
#        216451
#        228636
#        248389
#
# Disc length: 3413 seconds
#
# Revision: 0
# Processed by: cddbd v1.4PL0 Copyright (c) Steve Scherf et al.
# Submitted via: ExactAudioCopy v0.90a11
#
DISCID=150d5314
DTITLE=The Travellers - The Travellers
DYEAR=1900
DGENRE=
TTITLE0=West Overture
TTITLE1=You Made It Right
TTITLE2=Dixieland Delight
TTITLE3=Achy Break Heart
TTITLE4=Blowin' The Wind
TTITLE5=The Boxer
TTITLE6=Shambala
TTITLE7=Who'll Stop The Rain
TTITLE8=Oh! Lonesome Me
TTITLE9=Hight Horse
TTITLE10=Comes A Time
TTITLE11=Always On My Mind
TTITLE12=On The Road Again
TTITLE13=Summertime Blues
TTITLE14=Have You Ever Seen The Rain
TTITLE15=Jambalaya
TTITLE16=Act Naturally
TTITLE17=Ghost Riders In The Sky
TTITLE18=Texas Medley
TTITLE19=West Soul
EXTD=
EXTT0=
EXTT1=
EXTT2=
EXTT3=
EXTT4=
EXTT5=
EXTT6=
EXTT7=
EXTT8=
EXTT9=
EXTT10=
EXTT11=
EXTT12=
EXTT13=
EXTT14=
EXTT15=
EXTT16=
EXTT17=
EXTT18=
EXTT19=
PLAYORDER=
